<svg xmlns="http://www.w3.org/2000/svg" fill="none" viewBox="0 0 600 600"><path fill="#7E13F8" d="M124.6 61c-34.2 0-59.5 30-58.4 62.5 1 31.2-.3 71.6-10.5 104.6s-27.5 54-55.7 56.7v30.4c28.2 2.7 45.5 23.6 55.7 56.7 10.2 33 11.6 73.4 10.5 104.6C65 509 90.4 539 124.6 539h350.8c34.3 0 59.6-30 58.5-62.5-1.1-31.2.3-71.6 10.5-104.6s27.4-54 55.6-56.7v-30.4c-28.2-2.7-45.4-23.6-55.6-56.7-10.2-33-11.6-73.4-10.5-104.6 1-32.5-24.2-62.5-58.5-62.5zm282.2 294.2c0 44.8-33.4 72-88.8 72h-94.3c-5.6 0-10.1-4.6-10.1-10.3V183.1a10 10 0 0 1 10.1-10.2h93.8c46.2 0 76.5 25 76.5 63.4 0 27-20.4 51.1-46.4 55.3v1.4c35.4 4 59.2 28.4 59.2 62.2m-99-150H254V281h45.3c35 0 54.3-14.1 54.3-39.3 0-23.6-16.6-36.7-45.9-36.7m-53.8 106v83.7h55.7c36.5 0 55.8-14.7 55.8-42.1S345.5 311 307.3 311z"/></svg>