<svg xmlns="http://www.w3.org/2000/svg" fill="none" viewBox="0 0 600 600"><g clip-path="url(#devicon-nodejs-8-a)"><path fill="#539E43" d="M296.7 483.7q-3 0-5.7-1.5l-18-10.7c-2.7-1.5-1.3-2-.5-2.3a32 32 0 0 0 8.1-3.7q.7-.3 1.4.2l13.8 8.2q.9.4 1.6 0l54.1-31.3q.9-.5.9-1.5v-62.5q0-1-.9-1.5l-54-31.2q-1-.4-1.7 0l-54.1 31.2q-.8.6-.8 1.5V441q0 1 .8 1.5l14.8 8.6c8 4 13-.7 13-5.5V384q.1-1.4 1.6-1.6h7c.7 0 1.6.7 1.6 1.6v61.7c0 10.7-5.9 17-16 17-3.2 0-5.6 0-12.5-3.4l-14.3-8.1c-3.5-2-5.7-5.9-5.7-10v-62.5c0-4 2.2-7.8 5.7-9.9l54.1-31.3c3.4-1.9 8-1.9 11.4 0l54.2 31.3c3.5 2 5.7 5.9 5.7 10v62.5c0 4-2.2 7.8-5.7 9.9l-54.2 31.3q-2.7 1.2-5.7 1.2m16.7-43c-23.7 0-28.6-10.8-28.6-20q.1-1.5 1.6-1.7h7q1.5 0 1.6 1.4c1 7.2 4.2 10.7 18.6 10.7 11.4 0 16.2-2.6 16.2-8.7 0-3.5-1.3-6.1-19-7.9-14.9-1.5-24-4.7-24-16.5 0-11 9.1-17.5 24.6-17.5 17.4 0 25.9 6 27 19q0 .6-.4 1.2t-1.1.5h-7q-1.2 0-1.6-1.2c-1.6-7.4-5.8-9.9-17-9.9-12.4 0-13.9 4.4-13.9 7.6 0 4 1.8 5.2 18.6 7.3 16.7 2.2 24.6 5.3 24.6 17-.2 12-10 18.7-27.2 18.7"/><path fill="#333" d="M128.8 239.2c0-2.5-1.3-4.8-3.5-6l-57.5-33q-1.5-.9-3.1-1h-.5q-1.7 0-3.2 1l-57.5 33a7 7 0 0 0-3.5 6l.1 89q0 2 1.8 3a3 3 0 0 0 3.4 0l34.2-19.6a7 7 0 0 0 3.5-6V264c0-2.4 1.3-4.8 3.5-6l14.5-8.4q1.7-1 3.6-1t3.3 1l14.6 8.4a7 7 0 0 1 3.5 6v41.6c0 2.5 1.3 4.8 3.5 6l34.2 19.5q1.7 1 3.5 0 1.7-.9 1.8-3zm276.4-122.5c-1-.5-2.4-.5-3.3 0q-1.7 1.1-1.8 3v88.1q0 1.4-1.2 2.2-1.3.6-2.5 0l-14.3-8.3a7 7 0 0 0-7 0L317.6 235a7 7 0 0 0-3.5 6v66.3c0 2.4 1.4 4.7 3.5 6l57.5 33.1a7 7 0 0 0 7 0l57.5-33.2a7 7 0 0 0 3.5-6V142a7 7 0 0 0-3.5-6zM400 285.4q0 1-.9 1.5l-19.6 11.4a2 2 0 0 1-1.8 0L358 286.9q-.8-.6-.8-1.5v-22.8q0-1 .8-1.5l19.7-11.4a2 2 0 0 1 1.8 0l19.6 11.4q.9.6.9 1.5zm196.6-23.3a7 7 0 0 0 3.4-6V240a7 7 0 0 0-3.4-6l-57-33a7 7 0 0 0-7 0l-57.5 33.2a7 7 0 0 0-3.5 6v66.2c0 2.5 1.3 4.8 3.5 6l57 32.6a7 7 0 0 0 6.9 0l34.6-19.3c1-.5 1.7-1.8 1.7-3s-.7-2.4-1.7-3l-57.8-33.2q-1.7-1.1-1.8-3v-20.7c0-1.2.7-2.5 1.8-3l18-10.3q1.8-1 3.5 0l18 10.3q1.8 1.1 1.8 3V279q0 2.1 1.8 3 1.7 1 3.5 0z"/><path fill="#539E43" d="M535.2 259q.7-.4 1.3 0l11 6.4q.7.3.7 1.2v12.7q0 .9-.7 1.2l-11 6.4q-.7.4-1.3 0l-11-6.4q-.7-.3-.7-1.2v-12.7q0-.9.7-1.2z"/><path fill="url(#devicon-nodejs-9-b)" d="M225 201.2a7 7 0 0 0-7 0l-57 33a7 7 0 0 0-3.4 6v66a7 7 0 0 0 3.4 6l57 32.9a7 7 0 0 0 7 0l57.1-33a7 7 0 0 0 3.4-6v-66a7 7 0 0 0-3.4-6z"/><g mask="url(#devicon-nodejs-10-devicon-nodejs-2-devicon-nodejs-10-devicon-nodejs-2-devicon-nodejs-10-devicon-nodejs-2-devicon-nodejs-10-devicon-nodejs-2-devicon-nodejs-10-devicon-nodejs-2-devicon-nodejs-10-devicon-nodejs-2-devicon-nodejs-10-devicon-nodejs-2-devicon-nodejs-10-devicon-nodejs-2-devicon-nodejs-10-devicon-nodejs-2-devicon-nodejs-10-devicon-nodejs-2-devicon-nodejs-10-devicon-nodejs-2-devicon-nodejs-10-devicon-nodejs-2-devicon-nodejs-10-devicon-nodejs-2-devicon-nodejs-10-devicon-nodejs-2-devicon-nodejs-10-devicon-nodejs-2-devicon-nodejs-10-devicon-nodejs-2-devicon-nodejs-10-devicon-nodejs-2-devicon-nodejs-10-devicon-nodejs-2-devicon-nodejs-10-devicon-nodejs-2-devicon-nodejs-10-devicon-nodejs-2-devicon-nodejs-10-devicon-nodejs-2-devicon-nodejs-10-devicon-nodejs-2-devicon-nodejs-10-devicon-nodejs-2-devicon-nodejs-10-devicon-nodejs-2-devicon-nodejs-10-devicon-nodejs-2-devicon-10-devicon-2-devicon-2072-devicon-2064-devicon-2072-devicon-2064-node-c)"><path fill="url(#devicon-nodejs-11-c)" d="m282.2 234.2-57.3-33-1.8-.7-64.3 110.1q.8 1 2 1.7l57.3 33q2.5 1.4 5.3.6l60.3-110.4q-.7-.8-1.5-1.3"/></g><g fill-rule="evenodd" clip-rule="evenodd" mask="url(#devicon-nodejs-12-devicon-nodejs-4-devicon-nodejs-12-devicon-nodejs-4-devicon-nodejs-12-devicon-nodejs-4-devicon-nodejs-12-devicon-nodejs-4-devicon-nodejs-12-devicon-nodejs-4-devicon-nodejs-12-devicon-nodejs-4-devicon-nodejs-12-devicon-nodejs-4-devicon-nodejs-12-devicon-nodejs-4-devicon-nodejs-12-devicon-nodejs-4-devicon-nodejs-12-devicon-nodejs-4-devicon-nodejs-12-devicon-nodejs-4-devicon-nodejs-12-devicon-nodejs-4-devicon-nodejs-12-devicon-nodejs-4-devicon-nodejs-12-devicon-nodejs-4-devicon-nodejs-12-devicon-nodejs-4-devicon-nodejs-12-devicon-nodejs-4-devicon-nodejs-12-devicon-nodejs-4-devicon-nodejs-12-devicon-nodejs-4-devicon-nodejs-12-devicon-nodejs-4-devicon-nodejs-12-devicon-nodejs-4-devicon-nodejs-12-devicon-nodejs-4-devicon-nodejs-12-devicon-nodejs-4-devicon-nodejs-12-devicon-nodejs-4-devicon-nodejs-12-devicon-nodejs-4-devicon-nodejs-12-devicon-nodejs-4-devicon-12-devicon-4-devicon-2074-devicon-2066-devicon-2074-devicon-2066-node-e)"><path fill="url(#devicon-nodejs-13-d)" d="M282.4 312.1q2.5-1.6 3.4-4.3l-63-107.4a7 7 0 0 0-4.9.8L161 234l61.5 112q1.3-.2 2.6-.8z"/><path fill="url(#devicon-nodejs-14-e)" d="m282.4 312.1-57.3 33q-1.2.6-2.5.8l1 2 63.5-36.7v-.8l-1.6-2.7a6 6 0 0 1-3.1 4.4"/><path fill="url(#devicon-nodejs-15-f)" d="m282.4 312.1-57.3 33q-1.2.6-2.5.8l1 2 63.5-36.7v-.8l-1.6-2.7a6 6 0 0 1-3.1 4.4"/></g></g><defs><linearGradient id="devicon-nodejs-9-b" x1="8878.4" x2="2619.8" y1="2748.6" y2="12582.4" gradientUnits="userSpaceOnUse"><stop stop-color="#41873F"/><stop offset=".3" stop-color="#418B3D"/><stop offset=".6" stop-color="#419637"/><stop offset=".9" stop-color="#3FA92D"/><stop offset="1" stop-color="#3FAE2A"/></linearGradient><linearGradient id="devicon-nodejs-11-c" x1="5564.5" x2="21238.3" y1="8236.7" y2="-278.9" gradientUnits="userSpaceOnUse"><stop offset=".1" stop-color="#41873F"/><stop offset=".4" stop-color="#54A044"/><stop offset=".7" stop-color="#66B848"/><stop offset=".9" stop-color="#6CC04A"/></linearGradient><linearGradient id="devicon-nodejs-13-d" x1="-386.6" x2="12825.4" y1="7489" y2="7489" gradientUnits="userSpaceOnUse"><stop offset=".1" stop-color="#6CC04A"/><stop offset=".3" stop-color="#66B848"/><stop offset=".6" stop-color="#54A044"/><stop offset=".9" stop-color="#41873F"/></linearGradient><linearGradient id="devicon-nodejs-14-e" x1="-6482.4" x2="6729.7" y1="2332.8" y2="2332.8" gradientUnits="userSpaceOnUse"><stop offset=".1" stop-color="#6CC04A"/><stop offset=".3" stop-color="#66B848"/><stop offset=".6" stop-color="#54A044"/><stop offset=".9" stop-color="#41873F"/></linearGradient><linearGradient id="devicon-nodejs-15-f" x1="8654.5" x2="5307.4" y1="-8194.3" y2="9344.6" gradientUnits="userSpaceOnUse"><stop stop-color="#41873F"/><stop offset=".3" stop-color="#418B3D"/><stop offset=".6" stop-color="#419637"/><stop offset=".9" stop-color="#3FA92D"/><stop offset="1" stop-color="#3FAE2A"/></linearGradient><clipPath id="devicon-nodejs-8-a"><path fill="#fff" d="M0 0h600v600H0z"/></clipPath></defs></svg>