<svg xmlns="http://www.w3.org/2000/svg" fill="none" viewBox="0 0 600 600"><path fill="#00D8FF" d="M493.3 206.1q-9.3-3.2-19.3-6l3-13.2c14.6-71 5-128.2-27.6-147-31.3-18-82.5.7-134.2 45.7q-7.5 6.6-15 13.7l-9.9-9.1c-54.1-48.1-108.5-68.4-141-49.5-31.3 18-40.6 71.8-27.4 139q1.8 9.8 4.4 20-11.5 3.2-22.2 7C40.6 228.6 0 263.4 0 299.4c0 37.2 43.6 74.5 109.7 97q7.9 2.8 16.2 5.2-2.7 11-4.7 21.4c-12.5 66-2.7 118.6 28.5 136.5 32.2 18.6 86.2-.5 138.9-46.5q6.2-5.4 12.5-11.5 8.1 7.8 16.2 14.8c51 43.8 101.4 61.6 132.5 43.5 32.2-18.6 42.7-75 29.1-143.6q-1.5-7.9-3.6-16l11.2-3.5C555.2 374 600 337.2 600 299.5c0-36.1-41.9-71-106.7-93.4m-14.9 166.4-10 3.1q-11.7-36.2-30.5-76a601 601 0 0 0 29.2-74.9q9.3 2.7 17.9 5.6c55.5 19.2 89.4 47.4 89.4 69.2 0 23.2-36.6 53.3-96 73m-24.6 48.8a217 217 0 0 1 2.8 79.2c-3.5 19.3-10.7 32.1-19.6 37.2-19 11-59.3-3.2-103-40.8q-7.5-6.5-15-13.7 25.4-27.9 50.3-63.9c29-2.6 56.4-6.8 81.2-12.5zM204.6 536c-18.5 6.5-33.2 6.7-42.1 1.5-19-10.9-26.8-53-16-109.5q1.7-9.8 4.3-20a603 603 0 0 0 80.8 11.7 624 624 0 0 0 51.6 63.7q-5.8 5.5-11.5 10.5a217 217 0 0 1-67.1 42M118 372.3a217 217 0 0 1-70-37.1c-14.9-12.8-22.4-25.4-22.4-35.7 0-21.9 32.6-49.7 87-68.7q9.8-3.4 20.6-6.5 11.3 37 29.2 75.8c-12 26.2-22 52.2-29.6 76.9q-7.5-2.2-14.8-4.7M147 175c-11.3-57.7-3.8-101.1 15-112 20.1-11.7 64.5 4.9 111.3 46.4l9 8.3a614 614 0 0 0-51 63.3 626 626 0 0 0-80.2 12.4q-2.3-9.3-4-18.4m258.8 63.9q-9-15.5-18.2-30 28.8 3.6 54.7 9.5A548 548 0 0 1 423 270a892 892 0 0 0-17.3-31.2M300.3 136a548 548 0 0 1 35.3 42.6 755 755 0 0 0-71 0 566 566 0 0 1 35.7-42.6M194 239a757 757 0 0 0-17 31 566 566 0 0 1-19-52q25.6-5.8 54.4-9.3Q203 223.5 194 239m19 153a545 545 0 0 1-55.4-8.9 576 576 0 0 1 19.5-53 754 754 0 0 0 35.8 62m87.9 72.7a576 576 0 0 1-36.1-43.2 895 895 0 0 0 71.3 0 545 545 0 0 1-35.2 43.2m122.3-135.5q12 27.5 20.2 52.8-26.2 6-56 9.5a896 896 0 0 0 35.8-62.3m-39.6 19q-14 24.4-28.8 46.5a772 772 0 0 1-109.2.2 727 727 0 0 1-55-94.9 720 720 0 0 1 54.6-94.7 726 726 0 0 1 109.4 0 772 772 0 0 1 54.8 94.3q-11.7 24.2-25.8 48.6m53-286.2c20 11.6 27.8 58.3 15.2 119.6l-2.7 12a614 614 0 0 0-80.2-12.8 602 602 0 0 0-50.8-63.3l14-12.6c44.3-38.6 85.7-53.8 104.6-43M300 245.9a53.6 53.6 0 1 1 0 107.2 53.6 53.6 0 0 1 0-107.2"/></svg>