<svg xmlns="http://www.w3.org/2000/svg" fill="none" viewBox="0 0 600 600"><mask id="devicon-visual-studio-code-5-a" width="600" height="598" x="0" y="1" maskUnits="userSpaceOnUse"><path fill="#fff" d="M425.5 595.9a37 37 0 0 0 29.7-1.1l123.6-59.5a38 38 0 0 0 21.2-33.8v-403c0-14.4-8.3-27.6-21.2-33.8L455.2 5.2a37 37 0 0 0-42.6 7.3L176.1 228.2l-103-78.1a25 25 0 0 0-31.9 1.4l-33 30a25 25 0 0 0 0 37L97.5 300 8.2 381.5a25 25 0 0 0 0 37l33 30a25 25 0 0 0 32 1.4l103-78.1 236.4 215.7q5.7 5.6 12.9 8.4M450 163.8 270.7 300 450 436.2z"/></mask><g mask="url(#devicon-visual-studio-code-5-a)"><path fill="#0065A9" d="M579.1 64.8 455.5 5.3a37 37 0 0 0-42.6 7.2L8.2 381.5a25 25 0 0 0 0 37l33 30a25 25 0 0 0 32 1.4L560.5 80.2a24.8 24.8 0 0 1 39.9 19.8v-1.4c0-14.4-8.3-27.6-21.3-33.8"/></g><mask id="devicon-visual-studio-code-6-b" width="600" height="598" x="0" y="1" maskUnits="userSpaceOnUse"><path fill="#fff" d="M425.5 595.9a37 37 0 0 0 29.7-1.1l123.6-59.5a38 38 0 0 0 21.2-33.8v-403c0-14.4-8.3-27.6-21.2-33.8L455.2 5.2a37 37 0 0 0-42.6 7.3L176.1 228.2l-103-78.1a25 25 0 0 0-31.9 1.4l-33 30a25 25 0 0 0 0 37L97.5 300 8.2 381.5a25 25 0 0 0 0 37l33 30a25 25 0 0 0 32 1.4l103-78.1 236.4 215.7q5.7 5.6 12.9 8.4M450 163.8 270.7 300 450 436.2z"/></mask><g mask="url(#devicon-visual-studio-code-6-b)"><path fill="#007ACC" d="m579.1 535.2-123.6 59.5a37 37 0 0 1-42.6-7.2L8.2 218.5a25 25 0 0 1 0-37l33-30a25 25 0 0 1 32-1.4l487.3 369.7a24.8 24.8 0 0 0 39.9-19.8v1.4c0 14.4-8.3 27.6-21.3 33.8"/></g><mask id="devicon-visual-studio-code-7-c" width="600" height="598" x="0" y="1" maskUnits="userSpaceOnUse"><path fill="#fff" d="M425.5 595.9a37 37 0 0 0 29.7-1.1l123.6-59.5a38 38 0 0 0 21.2-33.8v-403c0-14.4-8.3-27.6-21.2-33.8L455.2 5.2a37 37 0 0 0-42.6 7.3L176.1 228.2l-103-78.1a25 25 0 0 0-31.9 1.4l-33 30a25 25 0 0 0 0 37L97.5 300 8.2 381.5a25 25 0 0 0 0 37l33 30a25 25 0 0 0 32 1.4l103-78.1 236.4 215.7q5.7 5.6 12.9 8.4M450 163.8 270.7 300 450 436.2z"/></mask><g mask="url(#devicon-visual-studio-code-7-c)"><path fill="#1F9CF0" d="M455.1 594.8a37 37 0 0 1-42.6-7.3A22 22 0 0 0 450 572V28a22 22 0 0 0-37.5-15.5A37 37 0 0 1 455 5.3l123.6 59.4A38 38 0 0 1 600 98.5v403c0 14.5-8.3 27.6-21.3 33.9z"/></g><mask id="devicon-visual-studio-code-8-d" width="600" height="598" x="0" y="1" maskUnits="userSpaceOnUse"><path fill="#fff" d="M425.5 595.9a37 37 0 0 0 29.7-1.1l123.6-59.5a38 38 0 0 0 21.2-33.8v-403c0-14.4-8.3-27.6-21.2-33.8L455.2 5.2a37 37 0 0 0-42.6 7.3L176.1 228.2l-103-78.1a25 25 0 0 0-31.9 1.4l-33 30a25 25 0 0 0 0 37L97.5 300 8.2 381.5a25 25 0 0 0 0 37l33 30a25 25 0 0 0 32 1.4l103-78.1 236.4 215.7q5.7 5.6 12.9 8.4M450 163.8 270.7 300 450 436.2z"/></mask><g mask="url(#devicon-visual-studio-code-8-d)"><path fill="url(#devicon-visual-studio-code-9-e)" fill-opacity=".3" d="M425.5 595.9a37 37 0 0 0 29.7-1.1l123.6-59.5a38 38 0 0 0 21.2-33.8v-403c0-14.4-8.3-27.6-21.2-33.8L455.2 5.2a37 37 0 0 0-42.6 7.3L176.1 228.2l-103-78.1a25 25 0 0 0-31.9 1.4l-33 30a25 25 0 0 0 0 37L97.5 300 8.2 381.5a25 25 0 0 0 0 37l33 30a25 25 0 0 0 32 1.4l103-78.1 236.4 215.7q5.7 5.6 12.9 8.4M450 163.8 270.7 300 450 436.2z"/></g><defs><linearGradient id="devicon-visual-studio-code-9-e" x1="30000.1" x2="30000.1" y1="1.5" y2="59692.2" gradientUnits="userSpaceOnUse"><stop stop-color="#fff"/><stop offset="1" stop-color="#fff" stop-opacity="0"/></linearGradient></defs></svg>